<?xml version="1.0" encoding="UTF-8" standalone="no"?>
<!-- Created with Inkscape (http://www.inkscape.org/) -->

<svg
   width="102.39395mm"
   height="152.82248mm"
   viewBox="0 0 102.39395 152.82248"
   version="1.1"
   id="svg1"
   inkscape:version="1.4.2 (f4327f4, 2025-05-13)"
   sodipodi:docname="favicon.svg"
   xmlns:inkscape="http://www.inkscape.org/namespaces/inkscape"
   xmlns:sodipodi="http://sodipodi.sourceforge.net/DTD/sodipodi-0.dtd"
   xmlns="http://www.w3.org/2000/svg"
   xmlns:svg="http://www.w3.org/2000/svg">
  <sodipodi:namedview
     id="namedview1"
     pagecolor="#ffffff"
     bordercolor="#000000"
     borderopacity="0.25"
     inkscape:showpageshadow="2"
     inkscape:pageopacity="0.0"
     inkscape:pagecheckerboard="0"
     inkscape:deskcolor="#d1d1d1"
     inkscape:document-units="mm"
     inkscape:zoom="0.78127806"
     inkscape:cx="200.31281"
     inkscape:cy="444.78403"
     inkscape:window-width="1920"
     inkscape:window-height="1057"
     inkscape:window-x="-8"
     inkscape:window-y="-8"
     inkscape:window-maximized="1"
     inkscape:current-layer="layer1" />
  <defs
     id="defs1" />
  <g
     inkscape:label="Layer 1"
     inkscape:groupmode="layer"
     id="layer1"
     transform="translate(-52.205372,-30.755814)">
    <path
       style="fill:#ffffff;stroke-width:0.264583"
       d="m 60.18269,183.39484 c -3.01327,-0.51022 -5.87158,-2.77232 -7.26822,-5.75215 l -0.709098,-1.51291 V 116.1961 56.262411 L 53.07336,54.49928 c 0.9794,-1.989455 2.92051,-3.927991 4.82055,-4.814181 1.12045,-0.522581 1.70139,-0.560001 9.85573,-0.634862 l 8.66511,-0.07955 0.006,-1.507947 c 0.008,-2.043391 0.71756,-3.527573 2.13597,-4.467014 l 1.125,-0.745103 5.59264,-0.08032 5.59264,-0.08032 0.31909,-1.544879 c 0.94693,-4.584559 4.90462,-8.538741 9.51739,-9.508947 4.17674,-0.878496 8.3246,0.331388 11.30066,3.29628 1.71921,1.712753 2.59712,3.222413 3.33762,5.739365 l 0.59133,2.009897 5.5961,0.08447 5.59611,0.08447 0.99338,0.758251 c 1.54724,1.181002 2.00454,2.136875 2.00568,4.192415 l 0.001,1.775666 8.67151,0.07642 8.6715,0.07642 1.76561,0.86962 c 2.04739,1.008403 3.65084,2.661303 4.67476,4.818922 l 0.69058,1.455208 v 59.933689 59.93369 l -0.86627,1.75965 c -1.07306,2.17969 -3.1637,4.16646 -5.28618,5.02357 l -1.52055,0.61399 -42.7302,0.037 c -23.50162,0.0204 -43.30761,-0.0608 -44.01331,-0.18027 z m 85.85727,-7.68323 c 1.34528,-0.71997 1.28312,2.1607 1.28312,-59.46197 0,-41.315251 -0.0821,-57.619169 -0.29327,-58.224869 -0.53752,-1.541928 -0.98151,-1.618943 -9.33346,-1.618943 h -7.53634 l -0.0836,4.479488 c -0.0954,5.113364 -0.22927,5.48939 -2.33793,6.566866 l -1.16506,0.595312 h -23.03057 c -14.3015,0 -23.37441,-0.09861 -23.93772,-0.260164 -1.19927,-0.343943 -2.6027,-1.735945 -2.92694,-2.903099 -0.14329,-0.515778 -0.26119,-2.634419 -0.262,-4.708091 l -0.002,-3.770312 h -7.42148 c -7.87721,0 -8.59355,0.101431 -9.23943,1.308261 -0.18447,0.344694 -0.27243,19.27084 -0.27243,58.622821 v 58.11379 l 0.7734,0.77339 0.7734,0.7734 h 42.23879 c 29.75094,0 42.39671,-0.0845 42.77295,-0.28588 z M 91.01975,164.03833 c -0.17463,-0.17463 -0.3175,-0.48896 -0.3175,-0.69852 0,-0.48127 4.915,-5.51759 5.87384,-6.01883 0.59556,-0.31133 3.81004,-0.3732 19.31458,-0.37174 17.7753,0.002 18.63366,0.0239 19.35648,0.5004 1.75509,1.15711 2.29852,3.5015 1.22123,5.26846 -1.0343,1.69645 -0.18286,1.63773 -23.7443,1.63773 -16.28143,0 -21.46263,-0.0758 -21.70433,-0.3175 z m -11.56229,-0.2911 c -0.78526,-0.48267 -10.87099,-10.80616 -11.21433,-11.4787 -0.71993,-1.41014 0.0752,-3.79633 1.55665,-4.67143 0.40892,-0.24155 1.29333,-0.43919 1.96535,-0.43919 1.39717,0 1.67942,0.21506 6.55437,4.99418 l 2.8308,2.77514 6.59497,-6.66917 6.59498,-6.66918 4.56862,0.0725 c 4.07384,0.0647 4.60037,0.12428 4.86173,0.55032 0.25572,0.41684 -1.05689,1.80952 -10.29023,10.91793 -5.82083,5.74208 -10.78386,10.55747 -11.02896,10.70086 -0.61387,0.35914 -2.35286,0.31076 -2.99395,-0.0833 z M 105,148.49999 c -0.15011,-0.28049 -0.21223,-0.66745 -0.13804,-0.85989 0.0742,-0.19244 1.49335,-1.62982 3.15368,-3.19417 l 3.01877,-2.84427 11.72819,10e-4 c 11.00803,0.001 11.77823,0.0315 12.54312,0.49793 1.75152,1.06808 2.22274,4.04694 0.86936,5.49582 -1.3553,1.45093 -0.92009,1.41359 -16.47851,1.41359 -13.97214,0 -14.43216,-0.016 -14.69657,-0.51 z m -4.86987,-15.65013 c -5.85096,-0.49141 -12.4745,-2.88466 -17.76226,-6.41794 -3.20818,-2.14371 -6.78412,-5.0369 -7.18595,-5.81395 -0.28249,-0.54628 -0.37554,-1.25066 -0.29442,-2.22882 0.0961,-1.15849 0.27417,-1.58569 0.93771,-2.24923 0.69056,-0.69056 1.08289,-0.84344 2.49967,-0.974 1.66146,-0.15312 1.74855,-0.20279 7.66928,-4.37404 l 5.98873,-4.21916 -0.50157,-0.98316 c -1.73742,-3.40562 -2.63116,-7.237691 -2.63116,-11.281572 0,-4.811498 0.99174,-7.406606 3.96875,-10.385208 1.9723,-1.973347 5.10926,-3.728836 7.57988,-4.241818 2.15732,-0.447929 5.9312,-0.199017 7.80454,0.514762 2.97601,1.13392 6.09934,3.597913 7.63988,6.027092 1.51498,2.388881 1.98111,4.328904 1.95833,8.15072 -0.023,3.854294 -0.58808,6.732554 -1.9656,10.011134 -0.43561,1.0368 -0.78464,2.00641 -0.77561,2.15469 0.009,0.14828 2.67543,2.11506 5.92533,4.37063 5.50356,3.81972 6.00692,4.11012 7.33774,4.23334 2.55462,0.23652 3.81679,1.65068 3.58902,4.0212 -0.14568,1.51613 -0.51383,1.96856 -3.50705,4.30993 -9.23607,7.22468 -18.25944,10.21662 -28.27524,9.3754 z m 9.93611,-8.13457 c 1.11858,-0.30026 2.84499,-0.8647 3.83646,-1.25433 2.46235,-0.96764 6.72906,-3.32805 6.61801,-3.66119 -0.0498,-0.14938 -2.34344,-1.88691 -5.09699,-3.86117 l -5.00647,-3.58956 -1.45698,0.87759 c -2.13574,1.28642 -4.59001,1.9883 -6.24911,1.78715 -1.35533,-0.16433 -4.0249,-1.27659 -5.38014,-2.2416 l -0.72284,-0.51471 -5.13485,3.68911 c -2.82417,2.02901 -5.16741,3.78678 -5.20721,3.90616 -0.0904,0.27124 3.76575,2.43372 5.89134,3.30377 4.57851,1.8741 6.93999,2.30959 11.90624,2.19571 2.94603,-0.0676 4.49285,-0.2317 6.00254,-0.63693 z m -5.11578,-17.88602 c 1.11808,-0.57819 2.92592,-2.68255 3.63484,-4.23104 1.63964,-3.581445 2.36518,-9.887227 1.35131,-11.744494 -2.3357,-4.27868 -7.81291,-5.296612 -11.41919,-2.122241 -0.67249,0.591955 -1.47149,1.563928 -1.77556,2.159944 -0.49196,0.964335 -0.53658,1.390542 -0.40517,3.870383 0.28837,5.441848 2.04511,9.516348 5.03766,11.684148 1.17349,0.85007 2.41595,0.98324 3.57611,0.3833 z m 17.7057,-51.812505 -0.0716,-5.357812 -4.02457,-0.07298 -4.02456,-0.07298 -0.40865,0.790226 c -0.64225,1.241986 -3.04109,3.535841 -4.66111,4.457123 -4.28414,2.436326 -9.41383,2.098331 -13.46983,-0.887531 -0.87942,-0.647393 -2.10282,-1.883699 -2.71866,-2.747346 l -1.1197,-1.570271 -4.0349,-0.01426 -4.0349,-0.01426 v 5.423959 5.423958 h 19.32007 19.32006 z m -17.4852,-6.56527 c 3.17033,-1.197832 4.28938,-5.993423 1.99151,-8.53445 -1.30816,-1.446583 -4.36993,-2.022107 -6.07281,-1.141513 -1.98492,1.02644 -3.21256,3.648004 -2.72357,5.816084 0.69296,3.072503 3.96963,4.931108 6.80487,3.859879 z"
       id="path1" />
  </g>
</svg>
